<?xml version="1.0" encoding="utf-8" standalone="no"?>
<!DOCTYPE svg PUBLIC "-//W3C//DTD SVG 1.1//EN"
  "http://www.w3.org/Graphics/SVG/1.1/DTD/svg11.dtd">
<svg xmlns:xlink="http://www.w3.org/1999/xlink" width="709.061562pt" height="485.6475pt" viewBox="0 0 709.061562 485.6475" xmlns="http://www.w3.org/2000/svg" version="1.1">
 <metadata>
  <rdf:RDF xmlns:dc="http://purl.org/dc/elements/1.1/" xmlns:cc="http://creativecommons.org/ns#" xmlns:rdf="http://www.w3.org/1999/02/22-rdf-syntax-ns#">
   <cc:Work>
    <dc:type rdf:resource="http://purl.org/dc/dcmitype/StillImage"/>
    <dc:date>2023-11-03T18:56:38.037803</dc:date>
    <dc:format>image/svg+xml</dc:format>
    <dc:creator>
     <cc:Agent>
      <dc:title>Matplotlib v3.7.2, https://matplotlib.org/</dc:title>
     </cc:Agent>
    </dc:creator>
   </cc:Work>
  </rdf:RDF>
 </metadata>
 <defs>
  <style type="text/css">*{stroke-linejoin: round; stroke-linecap: butt}</style>
 </defs>
 <g id="figure_1">
  <g id="patch_1">
   <path d="M 0 485.6475 
L 709.061562 485.6475 
L 709.061562 0 
L 0 0 
z
" style="fill: #ffffff"/>
  </g>
  <g id="axes_1">
   <g id="patch_2">
    <path d="M 53.861563 327.2475 
L 701.861562 327.2475 
L 701.861562 24.8475 
L 53.861563 24.8475 
z
" style="fill: #ffffff"/>
   </g>
   <g id="table_1">
    <g id="patch_3">
     <path d="M 53.861563 417.9675 
L 215.861563 417.9675 
L 215.861563 387.7275 
L 53.861563 387.7275 
z
" style="fill: #ffffff; stroke: #000000; stroke-linejoin: miter"/>
    </g>
    <g id="text_1">
     <!-- Max Thigh Vel (deg/s) -->
     <g transform="translate(86.318594 405.435) scale(0.1 -0.1)">
      <defs>
       <path id="ArialMT-4d" d="M 475 0 
L 475 4581 
L 1388 4581 
L 2472 1338 
Q 2622 884 2691 659 
Q 2769 909 2934 1394 
L 4031 4581 
L 4847 4581 
L 4847 0 
L 4263 0 
L 4263 3834 
L 2931 0 
L 2384 0 
L 1059 3900 
L 1059 0 
L 475 0 
z
" transform="scale(0.015625)"/>
       <path id="ArialMT-61" d="M 2588 409 
Q 2275 144 1986 34 
Q 1697 -75 1366 -75 
Q 819 -75 525 192 
Q 231 459 231 875 
Q 231 1119 342 1320 
Q 453 1522 633 1644 
Q 813 1766 1038 1828 
Q 1203 1872 1538 1913 
Q 2219 1994 2541 2106 
Q 2544 2222 2544 2253 
Q 2544 2597 2384 2738 
Q 2169 2928 1744 2928 
Q 1347 2928 1158 2789 
Q 969 2650 878 2297 
L 328 2372 
Q 403 2725 575 2942 
Q 747 3159 1072 3276 
Q 1397 3394 1825 3394 
Q 2250 3394 2515 3294 
Q 2781 3194 2906 3042 
Q 3031 2891 3081 2659 
Q 3109 2516 3109 2141 
L 3109 1391 
Q 3109 606 3145 398 
Q 3181 191 3288 0 
L 2700 0 
Q 2613 175 2588 409 
z
M 2541 1666 
Q 2234 1541 1622 1453 
Q 1275 1403 1131 1340 
Q 988 1278 909 1158 
Q 831 1038 831 891 
Q 831 666 1001 516 
Q 1172 366 1500 366 
Q 1825 366 2078 508 
Q 2331 650 2450 897 
Q 2541 1088 2541 1459 
L 2541 1666 
z
" transform="scale(0.015625)"/>
       <path id="ArialMT-78" d="M 47 0 
L 1259 1725 
L 138 3319 
L 841 3319 
L 1350 2541 
Q 1494 2319 1581 2169 
Q 1719 2375 1834 2534 
L 2394 3319 
L 3066 3319 
L 1919 1756 
L 3153 0 
L 2463 0 
L 1781 1031 
L 1600 1309 
L 728 0 
L 47 0 
z
" transform="scale(0.015625)"/>
       <path id="ArialMT-20" transform="scale(0.015625)"/>
       <path id="ArialMT-54" d="M 1659 0 
L 1659 4041 
L 150 4041 
L 150 4581 
L 3781 4581 
L 3781 4041 
L 2266 4041 
L 2266 0 
L 1659 0 
z
" transform="scale(0.015625)"/>
       <path id="ArialMT-68" d="M 422 0 
L 422 4581 
L 984 4581 
L 984 2938 
Q 1378 3394 1978 3394 
Q 2347 3394 2619 3248 
Q 2891 3103 3008 2847 
Q 3125 2591 3125 2103 
L 3125 0 
L 2563 0 
L 2563 2103 
Q 2563 2525 2380 2717 
Q 2197 2909 1863 2909 
Q 1613 2909 1392 2779 
Q 1172 2650 1078 2428 
Q 984 2206 984 1816 
L 984 0 
L 422 0 
z
" transform="scale(0.015625)"/>
       <path id="ArialMT-69" d="M 425 3934 
L 425 4581 
L 988 4581 
L 988 3934 
L 425 3934 
z
M 425 0 
L 425 3319 
L 988 3319 
L 988 0 
L 425 0 
z
" transform="scale(0.015625)"/>
       <path id="ArialMT-67" d="M 319 -275 
L 866 -356 
Q 900 -609 1056 -725 
Q 1266 -881 1628 -881 
Q 2019 -881 2231 -725 
Q 2444 -569 2519 -288 
Q 2563 -116 2559 434 
Q 2191 0 1641 0 
Q 956 0 581 494 
Q 206 988 206 1678 
Q 206 2153 378 2554 
Q 550 2956 876 3175 
Q 1203 3394 1644 3394 
Q 2231 3394 2613 2919 
L 2613 3319 
L 3131 3319 
L 3131 450 
Q 3131 -325 2973 -648 
Q 2816 -972 2473 -1159 
Q 2131 -1347 1631 -1347 
Q 1038 -1347 672 -1080 
Q 306 -813 319 -275 
z
M 784 1719 
Q 784 1066 1043 766 
Q 1303 466 1694 466 
Q 2081 466 2343 764 
Q 2606 1063 2606 1700 
Q 2606 2309 2336 2618 
Q 2066 2928 1684 2928 
Q 1309 2928 1046 2623 
Q 784 2319 784 1719 
z
" transform="scale(0.015625)"/>
       <path id="ArialMT-56" d="M 1803 0 
L 28 4581 
L 684 4581 
L 1875 1253 
Q 2019 853 2116 503 
Q 2222 878 2363 1253 
L 3600 4581 
L 4219 4581 
L 2425 0 
L 1803 0 
z
" transform="scale(0.015625)"/>
       <path id="ArialMT-65" d="M 2694 1069 
L 3275 997 
Q 3138 488 2766 206 
Q 2394 -75 1816 -75 
Q 1088 -75 661 373 
Q 234 822 234 1631 
Q 234 2469 665 2931 
Q 1097 3394 1784 3394 
Q 2450 3394 2872 2941 
Q 3294 2488 3294 1666 
Q 3294 1616 3291 1516 
L 816 1516 
Q 847 969 1125 678 
Q 1403 388 1819 388 
Q 2128 388 2347 550 
Q 2566 713 2694 1069 
z
M 847 1978 
L 2700 1978 
Q 2663 2397 2488 2606 
Q 2219 2931 1791 2931 
Q 1403 2931 1139 2672 
Q 875 2413 847 1978 
z
" transform="scale(0.015625)"/>
       <path id="ArialMT-6c" d="M 409 0 
L 409 4581 
L 972 4581 
L 972 0 
L 409 0 
z
" transform="scale(0.015625)"/>
       <path id="ArialMT-28" d="M 1497 -1347 
Q 1031 -759 709 28 
Q 388 816 388 1659 
Q 388 2403 628 3084 
Q 909 3875 1497 4659 
L 1900 4659 
Q 1522 4009 1400 3731 
Q 1209 3300 1100 2831 
Q 966 2247 966 1656 
Q 966 153 1900 -1347 
L 1497 -1347 
z
" transform="scale(0.015625)"/>
       <path id="ArialMT-64" d="M 2575 0 
L 2575 419 
Q 2259 -75 1647 -75 
Q 1250 -75 917 144 
Q 584 363 401 755 
Q 219 1147 219 1656 
Q 219 2153 384 2558 
Q 550 2963 881 3178 
Q 1213 3394 1622 3394 
Q 1922 3394 2156 3267 
Q 2391 3141 2538 2938 
L 2538 4581 
L 3097 4581 
L 3097 0 
L 2575 0 
z
M 797 1656 
Q 797 1019 1065 703 
Q 1334 388 1700 388 
Q 2069 388 2326 689 
Q 2584 991 2584 1609 
Q 2584 2291 2321 2609 
Q 2059 2928 1675 2928 
Q 1300 2928 1048 2622 
Q 797 2316 797 1656 
z
" transform="scale(0.015625)"/>
       <path id="ArialMT-2f" d="M 0 -78 
L 1328 4659 
L 1778 4659 
L 453 -78 
L 0 -78 
z
" transform="scale(0.015625)"/>
       <path id="ArialMT-73" d="M 197 991 
L 753 1078 
Q 800 744 1014 566 
Q 1228 388 1613 388 
Q 2000 388 2187 545 
Q 2375 703 2375 916 
Q 2375 1106 2209 1216 
Q 2094 1291 1634 1406 
Q 1016 1563 777 1677 
Q 538 1791 414 1992 
Q 291 2194 291 2438 
Q 291 2659 392 2848 
Q 494 3038 669 3163 
Q 800 3259 1026 3326 
Q 1253 3394 1513 3394 
Q 1903 3394 2198 3281 
Q 2494 3169 2634 2976 
Q 2775 2784 2828 2463 
L 2278 2388 
Q 2241 2644 2061 2787 
Q 1881 2931 1553 2931 
Q 1166 2931 1000 2803 
Q 834 2675 834 2503 
Q 834 2394 903 2306 
Q 972 2216 1119 2156 
Q 1203 2125 1616 2013 
Q 2213 1853 2448 1751 
Q 2684 1650 2818 1456 
Q 2953 1263 2953 975 
Q 2953 694 2789 445 
Q 2625 197 2315 61 
Q 2006 -75 1616 -75 
Q 969 -75 630 194 
Q 291 463 197 991 
z
" transform="scale(0.015625)"/>
       <path id="ArialMT-29" d="M 791 -1347 
L 388 -1347 
Q 1322 153 1322 1656 
Q 1322 2244 1188 2822 
Q 1081 3291 891 3722 
Q 769 4003 388 4659 
L 791 4659 
Q 1378 3875 1659 3084 
Q 1900 2403 1900 1659 
Q 1900 816 1576 28 
Q 1253 -759 791 -1347 
z
" transform="scale(0.015625)"/>
      </defs>
      <use xlink:href="#ArialMT-4d"/>
      <use xlink:href="#ArialMT-61" x="83.300781"/>
      <use xlink:href="#ArialMT-78" x="138.916016"/>
      <use xlink:href="#ArialMT-20" x="188.916016"/>
      <use xlink:href="#ArialMT-54" x="214.949219"/>
      <use xlink:href="#ArialMT-68" x="276.033203"/>
      <use xlink:href="#ArialMT-69" x="331.648438"/>
      <use xlink:href="#ArialMT-67" x="353.865234"/>
      <use xlink:href="#ArialMT-68" x="409.480469"/>
      <use xlink:href="#ArialMT-20" x="465.095703"/>
      <use xlink:href="#ArialMT-56" x="492.878906"/>
      <use xlink:href="#ArialMT-65" x="554.078125"/>
      <use xlink:href="#ArialMT-6c" x="609.693359"/>
      <use xlink:href="#ArialMT-20" x="631.910156"/>
      <use xlink:href="#ArialMT-28" x="659.693359"/>
      <use xlink:href="#ArialMT-64" x="692.994141"/>
      <use xlink:href="#ArialMT-65" x="748.609375"/>
      <use xlink:href="#ArialMT-67" x="804.224609"/>
      <use xlink:href="#ArialMT-2f" x="859.839844"/>
      <use xlink:href="#ArialMT-73" x="887.623047"/>
      <use xlink:href="#ArialMT-29" x="937.623047"/>
     </g>
    </g>
    <g id="patch_4">
     <path d="M 215.861563 417.9675 
L 377.861562 417.9675 
L 377.861562 387.7275 
L 215.861563 387.7275 
z
" style="fill: #ffffff; stroke: #000000; stroke-linejoin: miter"/>
    </g>
    <g id="text_2">
     <!-- Max Thigh Vel (rad/s) -->
     <g transform="translate(249.434219 405.435) scale(0.1 -0.1)">
      <defs>
       <path id="ArialMT-72" d="M 416 0 
L 416 3319 
L 922 3319 
L 922 2816 
Q 1116 3169 1280 3281 
Q 1444 3394 1641 3394 
Q 1925 3394 2219 3213 
L 2025 2691 
Q 1819 2813 1613 2813 
Q 1428 2813 1281 2702 
Q 1134 2591 1072 2394 
Q 978 2094 978 1738 
L 978 0 
L 416 0 
z
" transform="scale(0.015625)"/>
      </defs>
      <use xlink:href="#ArialMT-4d"/>
      <use xlink:href="#ArialMT-61" x="83.300781"/>
      <use xlink:href="#ArialMT-78" x="138.916016"/>
      <use xlink:href="#ArialMT-20" x="188.916016"/>
      <use xlink:href="#ArialMT-54" x="214.949219"/>
      <use xlink:href="#ArialMT-68" x="276.033203"/>
      <use xlink:href="#ArialMT-69" x="331.648438"/>
      <use xlink:href="#ArialMT-67" x="353.865234"/>
      <use xlink:href="#ArialMT-68" x="409.480469"/>
      <use xlink:href="#ArialMT-20" x="465.095703"/>
      <use xlink:href="#ArialMT-56" x="492.878906"/>
      <use xlink:href="#ArialMT-65" x="554.078125"/>
      <use xlink:href="#ArialMT-6c" x="609.693359"/>
      <use xlink:href="#ArialMT-20" x="631.910156"/>
      <use xlink:href="#ArialMT-28" x="659.693359"/>
      <use xlink:href="#ArialMT-72" x="692.994141"/>
      <use xlink:href="#ArialMT-61" x="726.294922"/>
      <use xlink:href="#ArialMT-64" x="781.910156"/>
      <use xlink:href="#ArialMT-2f" x="837.525391"/>
      <use xlink:href="#ArialMT-73" x="865.308594"/>
      <use xlink:href="#ArialMT-29" x="915.308594"/>
     </g>
    </g>
    <g id="patch_5">
     <path d="M 377.861562 417.9675 
L 539.861562 417.9675 
L 539.861562 387.7275 
L 377.861562 387.7275 
z
" style="fill: #ffffff; stroke: #000000; stroke-linejoin: miter"/>
    </g>
    <g id="text_3">
     <!-- Max Shank Vel (deg/s) -->
     <g transform="translate(408.560781 405.435) scale(0.1 -0.1)">
      <defs>
       <path id="ArialMT-53" d="M 288 1472 
L 859 1522 
Q 900 1178 1048 958 
Q 1197 738 1509 602 
Q 1822 466 2213 466 
Q 2559 466 2825 569 
Q 3091 672 3220 851 
Q 3350 1031 3350 1244 
Q 3350 1459 3225 1620 
Q 3100 1781 2813 1891 
Q 2628 1963 1997 2114 
Q 1366 2266 1113 2400 
Q 784 2572 623 2826 
Q 463 3081 463 3397 
Q 463 3744 659 4045 
Q 856 4347 1234 4503 
Q 1613 4659 2075 4659 
Q 2584 4659 2973 4495 
Q 3363 4331 3572 4012 
Q 3781 3694 3797 3291 
L 3216 3247 
Q 3169 3681 2898 3903 
Q 2628 4125 2100 4125 
Q 1550 4125 1298 3923 
Q 1047 3722 1047 3438 
Q 1047 3191 1225 3031 
Q 1400 2872 2139 2705 
Q 2878 2538 3153 2413 
Q 3553 2228 3743 1945 
Q 3934 1663 3934 1294 
Q 3934 928 3725 604 
Q 3516 281 3123 101 
Q 2731 -78 2241 -78 
Q 1619 -78 1198 103 
Q 778 284 539 648 
Q 300 1013 288 1472 
z
" transform="scale(0.015625)"/>
       <path id="ArialMT-6e" d="M 422 0 
L 422 3319 
L 928 3319 
L 928 2847 
Q 1294 3394 1984 3394 
Q 2284 3394 2536 3286 
Q 2788 3178 2913 3003 
Q 3038 2828 3088 2588 
Q 3119 2431 3119 2041 
L 3119 0 
L 2556 0 
L 2556 2019 
Q 2556 2363 2490 2533 
Q 2425 2703 2258 2804 
Q 2091 2906 1866 2906 
Q 1506 2906 1245 2678 
Q 984 2450 984 1813 
L 984 0 
L 422 0 
z
" transform="scale(0.015625)"/>
       <path id="ArialMT-6b" d="M 425 0 
L 425 4581 
L 988 4581 
L 988 1969 
L 2319 3319 
L 3047 3319 
L 1778 2088 
L 3175 0 
L 2481 0 
L 1384 1697 
L 988 1316 
L 988 0 
L 425 0 
z
" transform="scale(0.015625)"/>
      </defs>
      <use xlink:href="#ArialMT-4d"/>
      <use xlink:href="#ArialMT-61" x="83.300781"/>
      <use xlink:href="#ArialMT-78" x="138.916016"/>
      <use xlink:href="#ArialMT-20" x="188.916016"/>
      <use xlink:href="#ArialMT-53" x="216.699219"/>
      <use xlink:href="#ArialMT-68" x="283.398438"/>
      <use xlink:href="#ArialMT-61" x="339.013672"/>
      <use xlink:href="#ArialMT-6e" x="394.628906"/>
      <use xlink:href="#ArialMT-6b" x="450.244141"/>
      <use xlink:href="#ArialMT-20" x="500.244141"/>
      <use xlink:href="#ArialMT-56" x="528.027344"/>
      <use xlink:href="#ArialMT-65" x="589.226562"/>
      <use xlink:href="#ArialMT-6c" x="644.841797"/>
      <use xlink:href="#ArialMT-20" x="667.058594"/>
      <use xlink:href="#ArialMT-28" x="694.841797"/>
      <use xlink:href="#ArialMT-64" x="728.142578"/>
      <use xlink:href="#ArialMT-65" x="783.757812"/>
      <use xlink:href="#ArialMT-67" x="839.373047"/>
      <use xlink:href="#ArialMT-2f" x="894.988281"/>
      <use xlink:href="#ArialMT-73" x="922.771484"/>
      <use xlink:href="#ArialMT-29" x="972.771484"/>
     </g>
    </g>
    <g id="patch_6">
     <path d="M 539.861562 417.9675 
L 701.861562 417.9675 
L 701.861562 387.7275 
L 539.861562 387.7275 
z
" style="fill: #ffffff; stroke: #000000; stroke-linejoin: miter"/>
    </g>
    <g id="text_4">
     <!-- Max Shank Vel (rad/s) -->
     <g transform="translate(571.676406 405.435) scale(0.1 -0.1)">
      <use xlink:href="#ArialMT-4d"/>
      <use xlink:href="#ArialMT-61" x="83.300781"/>
      <use xlink:href="#ArialMT-78" x="138.916016"/>
      <use xlink:href="#ArialMT-20" x="188.916016"/>
      <use xlink:href="#ArialMT-53" x="216.699219"/>
      <use xlink:href="#ArialMT-68" x="283.398438"/>
      <use xlink:href="#ArialMT-61" x="339.013672"/>
      <use xlink:href="#ArialMT-6e" x="394.628906"/>
      <use xlink:href="#ArialMT-6b" x="450.244141"/>
      <use xlink:href="#ArialMT-20" x="500.244141"/>
      <use xlink:href="#ArialMT-56" x="528.027344"/>
      <use xlink:href="#ArialMT-65" x="589.226562"/>
      <use xlink:href="#ArialMT-6c" x="644.841797"/>
      <use xlink:href="#ArialMT-20" x="667.058594"/>
      <use xlink:href="#ArialMT-28" x="694.841797"/>
      <use xlink:href="#ArialMT-72" x="728.142578"/>
      <use xlink:href="#ArialMT-61" x="761.443359"/>
      <use xlink:href="#ArialMT-64" x="817.058594"/>
      <use xlink:href="#ArialMT-2f" x="872.673828"/>
      <use xlink:href="#ArialMT-73" x="900.457031"/>
      <use xlink:href="#ArialMT-29" x="950.457031"/>
     </g>
    </g>
    <g id="patch_7">
     <path d="M 10.515312 448.2075 
L 53.861563 448.2075 
L 53.861563 417.9675 
L 10.515312 417.9675 
z
" style="fill: #ffffff; stroke: #000000; stroke-linejoin: miter"/>
    </g>
    <g id="text_5">
     <!-- Kicker 1 -->
     <g transform="translate(14.849937 435.672656) scale(0.1 -0.1)">
      <defs>
       <path id="ArialMT-4b" d="M 469 0 
L 469 4581 
L 1075 4581 
L 1075 2309 
L 3350 4581 
L 4172 4581 
L 2250 2725 
L 4256 0 
L 3456 0 
L 1825 2319 
L 1075 1588 
L 1075 0 
L 469 0 
z
" transform="scale(0.015625)"/>
       <path id="ArialMT-63" d="M 2588 1216 
L 3141 1144 
Q 3050 572 2676 248 
Q 2303 -75 1759 -75 
Q 1078 -75 664 370 
Q 250 816 250 1647 
Q 250 2184 428 2587 
Q 606 2991 970 3192 
Q 1334 3394 1763 3394 
Q 2303 3394 2647 3120 
Q 2991 2847 3088 2344 
L 2541 2259 
Q 2463 2594 2264 2762 
Q 2066 2931 1784 2931 
Q 1359 2931 1093 2626 
Q 828 2322 828 1663 
Q 828 994 1084 691 
Q 1341 388 1753 388 
Q 2084 388 2306 591 
Q 2528 794 2588 1216 
z
" transform="scale(0.015625)"/>
       <path id="ArialMT-31" d="M 2384 0 
L 1822 0 
L 1822 3584 
Q 1619 3391 1289 3197 
Q 959 3003 697 2906 
L 697 3450 
Q 1169 3672 1522 3987 
Q 1875 4303 2022 4600 
L 2384 4600 
L 2384 0 
z
" transform="scale(0.015625)"/>
      </defs>
      <use xlink:href="#ArialMT-4b"/>
      <use xlink:href="#ArialMT-69" x="66.699219"/>
      <use xlink:href="#ArialMT-63" x="88.916016"/>
      <use xlink:href="#ArialMT-6b" x="138.916016"/>
      <use xlink:href="#ArialMT-65" x="188.916016"/>
      <use xlink:href="#ArialMT-72" x="244.53125"/>
      <use xlink:href="#ArialMT-20" x="277.832031"/>
      <use xlink:href="#ArialMT-31" x="305.615234"/>
     </g>
    </g>
    <g id="patch_8">
     <path d="M 53.861563 448.2075 
L 215.861563 448.2075 
L 215.861563 417.9675 
L 53.861563 417.9675 
z
" style="fill: #ffffff; stroke: #000000; stroke-linejoin: miter"/>
    </g>
    <g id="text_6">
     <!-- 673.6 -->
     <g transform="translate(122.350625 435.672656) scale(0.1 -0.1)">
      <defs>
       <path id="ArialMT-36" d="M 3184 3459 
L 2625 3416 
Q 2550 3747 2413 3897 
Q 2184 4138 1850 4138 
Q 1581 4138 1378 3988 
Q 1113 3794 959 3422 
Q 806 3050 800 2363 
Q 1003 2672 1297 2822 
Q 1591 2972 1913 2972 
Q 2475 2972 2870 2558 
Q 3266 2144 3266 1488 
Q 3266 1056 3080 686 
Q 2894 316 2569 119 
Q 2244 -78 1831 -78 
Q 1128 -78 684 439 
Q 241 956 241 2144 
Q 241 3472 731 4075 
Q 1159 4600 1884 4600 
Q 2425 4600 2770 4297 
Q 3116 3994 3184 3459 
z
M 888 1484 
Q 888 1194 1011 928 
Q 1134 663 1356 523 
Q 1578 384 1822 384 
Q 2178 384 2434 671 
Q 2691 959 2691 1453 
Q 2691 1928 2437 2201 
Q 2184 2475 1800 2475 
Q 1419 2475 1153 2201 
Q 888 1928 888 1484 
z
" transform="scale(0.015625)"/>
       <path id="ArialMT-37" d="M 303 3981 
L 303 4522 
L 3269 4522 
L 3269 4084 
Q 2831 3619 2401 2847 
Q 1972 2075 1738 1259 
Q 1569 684 1522 0 
L 944 0 
Q 953 541 1156 1306 
Q 1359 2072 1739 2783 
Q 2119 3494 2547 3981 
L 303 3981 
z
" transform="scale(0.015625)"/>
       <path id="ArialMT-33" d="M 269 1209 
L 831 1284 
Q 928 806 1161 595 
Q 1394 384 1728 384 
Q 2125 384 2398 659 
Q 2672 934 2672 1341 
Q 2672 1728 2419 1979 
Q 2166 2231 1775 2231 
Q 1616 2231 1378 2169 
L 1441 2663 
Q 1497 2656 1531 2656 
Q 1891 2656 2178 2843 
Q 2466 3031 2466 3422 
Q 2466 3731 2256 3934 
Q 2047 4138 1716 4138 
Q 1388 4138 1169 3931 
Q 950 3725 888 3313 
L 325 3413 
Q 428 3978 793 4289 
Q 1159 4600 1703 4600 
Q 2078 4600 2393 4439 
Q 2709 4278 2876 4000 
Q 3044 3722 3044 3409 
Q 3044 3113 2884 2869 
Q 2725 2625 2413 2481 
Q 2819 2388 3044 2092 
Q 3269 1797 3269 1353 
Q 3269 753 2831 336 
Q 2394 -81 1725 -81 
Q 1122 -81 723 278 
Q 325 638 269 1209 
z
" transform="scale(0.015625)"/>
       <path id="ArialMT-2e" d="M 581 0 
L 581 641 
L 1222 641 
L 1222 0 
L 581 0 
z
" transform="scale(0.015625)"/>
      </defs>
      <use xlink:href="#ArialMT-36"/>
      <use xlink:href="#ArialMT-37" x="55.615234"/>
      <use xlink:href="#ArialMT-33" x="111.230469"/>
      <use xlink:href="#ArialMT-2e" x="166.845703"/>
      <use xlink:href="#ArialMT-36" x="194.628906"/>
     </g>
    </g>
    <g id="patch_9">
     <path d="M 215.861563 448.2075 
L 377.861562 448.2075 
L 377.861562 417.9675 
L 215.861563 417.9675 
z
" style="fill: #ffffff; stroke: #000000; stroke-linejoin: miter"/>
    </g>
    <g id="text_7">
     <!-- 11.76 -->
     <g transform="translate(284.719375 435.672656) scale(0.1 -0.1)">
      <use xlink:href="#ArialMT-31"/>
      <use xlink:href="#ArialMT-31" x="48.240234"/>
      <use xlink:href="#ArialMT-2e" x="103.855469"/>
      <use xlink:href="#ArialMT-37" x="131.638672"/>
      <use xlink:href="#ArialMT-36" x="187.253906"/>
     </g>
    </g>
    <g id="patch_10">
     <path d="M 377.861562 448.2075 
L 539.861562 448.2075 
L 539.861562 417.9675 
L 377.861562 417.9675 
z
" style="fill: #ffffff; stroke: #000000; stroke-linejoin: miter"/>
    </g>
    <g id="text_8">
     <!-- 1327.8 -->
     <g transform="translate(443.570156 435.672656) scale(0.1 -0.1)">
      <defs>
       <path id="ArialMT-32" d="M 3222 541 
L 3222 0 
L 194 0 
Q 188 203 259 391 
Q 375 700 629 1000 
Q 884 1300 1366 1694 
Q 2113 2306 2375 2664 
Q 2638 3022 2638 3341 
Q 2638 3675 2398 3904 
Q 2159 4134 1775 4134 
Q 1369 4134 1125 3890 
Q 881 3647 878 3216 
L 300 3275 
Q 359 3922 746 4261 
Q 1134 4600 1788 4600 
Q 2447 4600 2831 4234 
Q 3216 3869 3216 3328 
Q 3216 3053 3103 2787 
Q 2991 2522 2730 2228 
Q 2469 1934 1863 1422 
Q 1356 997 1212 845 
Q 1069 694 975 541 
L 3222 541 
z
" transform="scale(0.015625)"/>
       <path id="ArialMT-38" d="M 1131 2484 
Q 781 2613 612 2850 
Q 444 3088 444 3419 
Q 444 3919 803 4259 
Q 1163 4600 1759 4600 
Q 2359 4600 2725 4251 
Q 3091 3903 3091 3403 
Q 3091 3084 2923 2848 
Q 2756 2613 2416 2484 
Q 2838 2347 3058 2040 
Q 3278 1734 3278 1309 
Q 3278 722 2862 322 
Q 2447 -78 1769 -78 
Q 1091 -78 675 323 
Q 259 725 259 1325 
Q 259 1772 486 2073 
Q 713 2375 1131 2484 
z
M 1019 3438 
Q 1019 3113 1228 2906 
Q 1438 2700 1772 2700 
Q 2097 2700 2305 2904 
Q 2513 3109 2513 3406 
Q 2513 3716 2298 3927 
Q 2084 4138 1766 4138 
Q 1444 4138 1231 3931 
Q 1019 3725 1019 3438 
z
M 838 1322 
Q 838 1081 952 856 
Q 1066 631 1291 507 
Q 1516 384 1775 384 
Q 2178 384 2440 643 
Q 2703 903 2703 1303 
Q 2703 1709 2433 1975 
Q 2163 2241 1756 2241 
Q 1359 2241 1098 1978 
Q 838 1716 838 1322 
z
" transform="scale(0.015625)"/>
      </defs>
      <use xlink:href="#ArialMT-31"/>
      <use xlink:href="#ArialMT-33" x="55.615234"/>
      <use xlink:href="#ArialMT-32" x="111.230469"/>
      <use xlink:href="#ArialMT-37" x="166.845703"/>
      <use xlink:href="#ArialMT-2e" x="222.460938"/>
      <use xlink:href="#ArialMT-38" x="250.244141"/>
     </g>
    </g>
    <g id="patch_11">
     <path d="M 539.861562 448.2075 
L 701.861562 448.2075 
L 701.861562 417.9675 
L 539.861562 417.9675 
z
" style="fill: #ffffff; stroke: #000000; stroke-linejoin: miter"/>
    </g>
    <g id="text_9">
     <!-- 23.17 -->
     <g transform="translate(608.350625 435.672656) scale(0.1 -0.1)">
      <use xlink:href="#ArialMT-32"/>
      <use xlink:href="#ArialMT-33" x="55.615234"/>
      <use xlink:href="#ArialMT-2e" x="111.230469"/>
      <use xlink:href="#ArialMT-31" x="139.013672"/>
      <use xlink:href="#ArialMT-37" x="194.628906"/>
     </g>
    </g>
    <g id="patch_12">
     <path d="M 10.515312 478.4475 
L 53.861563 478.4475 
L 53.861563 448.2075 
L 10.515312 448.2075 
z
" style="fill: #ffffff; stroke: #000000; stroke-linejoin: miter"/>
    </g>
    <g id="text_10">
     <!-- Kicker 2 -->
     <g transform="translate(14.849937 465.912656) scale(0.1 -0.1)">
      <use xlink:href="#ArialMT-4b"/>
      <use xlink:href="#ArialMT-69" x="66.699219"/>
      <use xlink:href="#ArialMT-63" x="88.916016"/>
      <use xlink:href="#ArialMT-6b" x="138.916016"/>
      <use xlink:href="#ArialMT-65" x="188.916016"/>
      <use xlink:href="#ArialMT-72" x="244.53125"/>
      <use xlink:href="#ArialMT-20" x="277.832031"/>
      <use xlink:href="#ArialMT-32" x="305.615234"/>
     </g>
    </g>
    <g id="patch_13">
     <path d="M 53.861563 478.4475 
L 215.861563 478.4475 
L 215.861563 448.2075 
L 53.861563 448.2075 
z
" style="fill: #ffffff; stroke: #000000; stroke-linejoin: miter"/>
    </g>
    <g id="text_11">
     <!-- 64.74 -->
     <g transform="translate(122.350625 465.912656) scale(0.1 -0.1)">
      <defs>
       <path id="ArialMT-34" d="M 2069 0 
L 2069 1097 
L 81 1097 
L 81 1613 
L 2172 4581 
L 2631 4581 
L 2631 1613 
L 3250 1613 
L 3250 1097 
L 2631 1097 
L 2631 0 
L 2069 0 
z
M 2069 1613 
L 2069 3678 
L 634 1613 
L 2069 1613 
z
" transform="scale(0.015625)"/>
      </defs>
      <use xlink:href="#ArialMT-36"/>
      <use xlink:href="#ArialMT-34" x="55.615234"/>
      <use xlink:href="#ArialMT-2e" x="111.230469"/>
      <use xlink:href="#ArialMT-37" x="139.013672"/>
      <use xlink:href="#ArialMT-34" x="194.628906"/>
     </g>
    </g>
    <g id="patch_14">
     <path d="M 215.861563 478.4475 
L 377.861562 478.4475 
L 377.861562 448.2075 
L 215.861563 448.2075 
z
" style="fill: #ffffff; stroke: #000000; stroke-linejoin: miter"/>
    </g>
    <g id="text_12">
     <!-- 1.13 -->
     <g transform="translate(287.131094 465.912656) scale(0.1 -0.1)">
      <use xlink:href="#ArialMT-31"/>
      <use xlink:href="#ArialMT-2e" x="55.615234"/>
      <use xlink:href="#ArialMT-31" x="83.398438"/>
      <use xlink:href="#ArialMT-33" x="139.013672"/>
     </g>
    </g>
    <g id="patch_15">
     <path d="M 377.861562 478.4475 
L 539.861562 478.4475 
L 539.861562 448.2075 
L 377.861562 448.2075 
z
" style="fill: #ffffff; stroke: #000000; stroke-linejoin: miter"/>
    </g>
    <g id="text_13">
     <!-- 1042.8 -->
     <g transform="translate(443.570156 465.912656) scale(0.1 -0.1)">
      <defs>
       <path id="ArialMT-30" d="M 266 2259 
Q 266 3072 433 3567 
Q 600 4063 929 4331 
Q 1259 4600 1759 4600 
Q 2128 4600 2406 4451 
Q 2684 4303 2865 4023 
Q 3047 3744 3150 3342 
Q 3253 2941 3253 2259 
Q 3253 1453 3087 958 
Q 2922 463 2592 192 
Q 2263 -78 1759 -78 
Q 1097 -78 719 397 
Q 266 969 266 2259 
z
M 844 2259 
Q 844 1131 1108 757 
Q 1372 384 1759 384 
Q 2147 384 2411 759 
Q 2675 1134 2675 2259 
Q 2675 3391 2411 3762 
Q 2147 4134 1753 4134 
Q 1366 4134 1134 3806 
Q 844 3388 844 2259 
z
" transform="scale(0.015625)"/>
      </defs>
      <use xlink:href="#ArialMT-31"/>
      <use xlink:href="#ArialMT-30" x="55.615234"/>
      <use xlink:href="#ArialMT-34" x="111.230469"/>
      <use xlink:href="#ArialMT-32" x="166.845703"/>
      <use xlink:href="#ArialMT-2e" x="222.460938"/>
      <use xlink:href="#ArialMT-38" x="250.244141"/>
     </g>
    </g>
    <g id="patch_16">
     <path d="M 539.861562 478.4475 
L 701.861562 478.4475 
L 701.861562 448.2075 
L 539.861562 448.2075 
z
" style="fill: #ffffff; stroke: #000000; stroke-linejoin: miter"/>
    </g>
    <g id="text_14">
     <!-- 18.2 -->
     <g transform="translate(611.131094 465.912656) scale(0.1 -0.1)">
      <use xlink:href="#ArialMT-31"/>
      <use xlink:href="#ArialMT-38" x="55.615234"/>
      <use xlink:href="#ArialMT-2e" x="111.230469"/>
      <use xlink:href="#ArialMT-32" x="139.013672"/>
     </g>
    </g>
   </g>
   <g id="matplotlib.axis_1">
    <g id="xtick_1">
     <g id="line2d_1">
      <path d="M 77.911604 327.2475 
L 77.911604 24.8475 
" clip-path="url(#p48e7cd02e0)" style="fill: none; stroke: #b0b0b0; stroke-width: 0.8; stroke-linecap: square"/>
     </g>
     <g id="line2d_2">
      <defs>
       <path id="mea18976e83" d="M 0 0 
L 0 3.5 
" style="stroke: #000000; stroke-width: 0.8"/>
      </defs>
      <g>
       <use xlink:href="#mea18976e83" x="77.911604" y="327.2475" style="stroke: #000000; stroke-width: 0.8"/>
      </g>
     </g>
     <g id="text_15">
      <!-- 0.00 -->
      <g transform="translate(68.181135 341.405312) scale(0.1 -0.1)">
       <use xlink:href="#ArialMT-30"/>
       <use xlink:href="#ArialMT-2e" x="55.615234"/>
       <use xlink:href="#ArialMT-30" x="83.398438"/>
       <use xlink:href="#ArialMT-30" x="139.013672"/>
      </g>
     </g>
    </g>
    <g id="xtick_2">
     <g id="line2d_3">
      <path d="M 167.986667 327.2475 
L 167.986667 24.8475 
" clip-path="url(#p48e7cd02e0)" style="fill: none; stroke: #b0b0b0; stroke-width: 0.8; stroke-linecap: square"/>
     </g>
     <g id="line2d_4">
      <g>
       <use xlink:href="#mea18976e83" x="167.986667" y="327.2475" style="stroke: #000000; stroke-width: 0.8"/>
      </g>
     </g>
     <g id="text_16">
      <!-- 0.05 -->
      <g transform="translate(158.256198 341.405312) scale(0.1 -0.1)">
       <defs>
        <path id="ArialMT-35" d="M 266 1200 
L 856 1250 
Q 922 819 1161 601 
Q 1400 384 1738 384 
Q 2144 384 2425 690 
Q 2706 997 2706 1503 
Q 2706 1984 2436 2262 
Q 2166 2541 1728 2541 
Q 1456 2541 1237 2417 
Q 1019 2294 894 2097 
L 366 2166 
L 809 4519 
L 3088 4519 
L 3088 3981 
L 1259 3981 
L 1013 2750 
Q 1425 3038 1878 3038 
Q 2478 3038 2890 2622 
Q 3303 2206 3303 1553 
Q 3303 931 2941 478 
Q 2500 -78 1738 -78 
Q 1113 -78 717 272 
Q 322 622 266 1200 
z
" transform="scale(0.015625)"/>
       </defs>
       <use xlink:href="#ArialMT-30"/>
       <use xlink:href="#ArialMT-2e" x="55.615234"/>
       <use xlink:href="#ArialMT-30" x="83.398438"/>
       <use xlink:href="#ArialMT-35" x="139.013672"/>
      </g>
     </g>
    </g>
    <g id="xtick_3">
     <g id="line2d_5">
      <path d="M 258.061729 327.2475 
L 258.061729 24.8475 
" clip-path="url(#p48e7cd02e0)" style="fill: none; stroke: #b0b0b0; stroke-width: 0.8; stroke-linecap: square"/>
     </g>
     <g id="line2d_6">
      <g>
       <use xlink:href="#mea18976e83" x="258.061729" y="327.2475" style="stroke: #000000; stroke-width: 0.8"/>
      </g>
     </g>
     <g id="text_17">
      <!-- 0.10 -->
      <g transform="translate(248.331261 341.405312) scale(0.1 -0.1)">
       <use xlink:href="#ArialMT-30"/>
       <use xlink:href="#ArialMT-2e" x="55.615234"/>
       <use xlink:href="#ArialMT-31" x="83.398438"/>
       <use xlink:href="#ArialMT-30" x="139.013672"/>
      </g>
     </g>
    </g>
    <g id="xtick_4">
     <g id="line2d_7">
      <path d="M 348.136792 327.2475 
L 348.136792 24.8475 
" clip-path="url(#p48e7cd02e0)" style="fill: none; stroke: #b0b0b0; stroke-width: 0.8; stroke-linecap: square"/>
     </g>
     <g id="line2d_8">
      <g>
       <use xlink:href="#mea18976e83" x="348.136792" y="327.2475" style="stroke: #000000; stroke-width: 0.8"/>
      </g>
     </g>
     <g id="text_18">
      <!-- 0.15 -->
      <g transform="translate(338.406323 341.405312) scale(0.1 -0.1)">
       <use xlink:href="#ArialMT-30"/>
       <use xlink:href="#ArialMT-2e" x="55.615234"/>
       <use xlink:href="#ArialMT-31" x="83.398438"/>
       <use xlink:href="#ArialMT-35" x="139.013672"/>
      </g>
     </g>
    </g>
    <g id="xtick_5">
     <g id="line2d_9">
      <path d="M 438.211854 327.2475 
L 438.211854 24.8475 
" clip-path="url(#p48e7cd02e0)" style="fill: none; stroke: #b0b0b0; stroke-width: 0.8; stroke-linecap: square"/>
     </g>
     <g id="line2d_10">
      <g>
       <use xlink:href="#mea18976e83" x="438.211854" y="327.2475" style="stroke: #000000; stroke-width: 0.8"/>
      </g>
     </g>
     <g id="text_19">
      <!-- 0.20 -->
      <g transform="translate(428.481386 341.405312) scale(0.1 -0.1)">
       <use xlink:href="#ArialMT-30"/>
       <use xlink:href="#ArialMT-2e" x="55.615234"/>
       <use xlink:href="#ArialMT-32" x="83.398438"/>
       <use xlink:href="#ArialMT-30" x="139.013672"/>
      </g>
     </g>
    </g>
    <g id="xtick_6">
     <g id="line2d_11">
      <path d="M 528.286917 327.2475 
L 528.286917 24.8475 
" clip-path="url(#p48e7cd02e0)" style="fill: none; stroke: #b0b0b0; stroke-width: 0.8; stroke-linecap: square"/>
     </g>
     <g id="line2d_12">
      <g>
       <use xlink:href="#mea18976e83" x="528.286917" y="327.2475" style="stroke: #000000; stroke-width: 0.8"/>
      </g>
     </g>
     <g id="text_20">
      <!-- 0.25 -->
      <g transform="translate(518.556448 341.405312) scale(0.1 -0.1)">
       <use xlink:href="#ArialMT-30"/>
       <use xlink:href="#ArialMT-2e" x="55.615234"/>
       <use xlink:href="#ArialMT-32" x="83.398438"/>
       <use xlink:href="#ArialMT-35" x="139.013672"/>
      </g>
     </g>
    </g>
    <g id="xtick_7">
     <g id="line2d_13">
      <path d="M 618.36198 327.2475 
L 618.36198 24.8475 
" clip-path="url(#p48e7cd02e0)" style="fill: none; stroke: #b0b0b0; stroke-width: 0.8; stroke-linecap: square"/>
     </g>
     <g id="line2d_14">
      <g>
       <use xlink:href="#mea18976e83" x="618.36198" y="327.2475" style="stroke: #000000; stroke-width: 0.8"/>
      </g>
     </g>
     <g id="text_21">
      <!-- 0.30 -->
      <g transform="translate(608.631511 341.405312) scale(0.1 -0.1)">
       <use xlink:href="#ArialMT-30"/>
       <use xlink:href="#ArialMT-2e" x="55.615234"/>
       <use xlink:href="#ArialMT-33" x="83.398438"/>
       <use xlink:href="#ArialMT-30" x="139.013672"/>
      </g>
     </g>
    </g>
    <g id="text_22">
     <!-- Time (s) -->
     <g transform="translate(352.463594 357.584375) scale(0.14 -0.14)">
      <defs>
       <path id="ArialMT-6d" d="M 422 0 
L 422 3319 
L 925 3319 
L 925 2853 
Q 1081 3097 1340 3245 
Q 1600 3394 1931 3394 
Q 2300 3394 2536 3241 
Q 2772 3088 2869 2813 
Q 3263 3394 3894 3394 
Q 4388 3394 4653 3120 
Q 4919 2847 4919 2278 
L 4919 0 
L 4359 0 
L 4359 2091 
Q 4359 2428 4304 2576 
Q 4250 2725 4106 2815 
Q 3963 2906 3769 2906 
Q 3419 2906 3187 2673 
Q 2956 2441 2956 1928 
L 2956 0 
L 2394 0 
L 2394 2156 
Q 2394 2531 2256 2718 
Q 2119 2906 1806 2906 
Q 1569 2906 1367 2781 
Q 1166 2656 1075 2415 
Q 984 2175 984 1722 
L 984 0 
L 422 0 
z
" transform="scale(0.015625)"/>
      </defs>
      <use xlink:href="#ArialMT-54"/>
      <use xlink:href="#ArialMT-69" x="57.333984"/>
      <use xlink:href="#ArialMT-6d" x="79.550781"/>
      <use xlink:href="#ArialMT-65" x="162.851562"/>
      <use xlink:href="#ArialMT-20" x="218.466797"/>
      <use xlink:href="#ArialMT-28" x="246.25"/>
      <use xlink:href="#ArialMT-73" x="279.550781"/>
      <use xlink:href="#ArialMT-29" x="329.550781"/>
     </g>
    </g>
   </g>
   <g id="matplotlib.axis_2">
    <g id="ytick_1">
     <g id="line2d_15">
      <path d="M 53.861563 299.377071 
L 701.861562 299.377071 
" clip-path="url(#p48e7cd02e0)" style="fill: none; stroke: #b0b0b0; stroke-width: 0.8; stroke-linecap: square"/>
     </g>
     <g id="line2d_16">
      <defs>
       <path id="m45993e6fc8" d="M 0 0 
L -3.5 0 
" style="stroke: #000000; stroke-width: 0.8"/>
      </defs>
      <g>
       <use xlink:href="#m45993e6fc8" x="53.861563" y="299.377071" style="stroke: #000000; stroke-width: 0.8"/>
      </g>
     </g>
     <g id="text_23">
      <!-- −500 -->
      <g transform="translate(24.338125 302.955978) scale(0.1 -0.1)">
       <defs>
        <path id="ArialMT-2212" d="M 3381 1997 
L 356 1997 
L 356 2522 
L 3381 2522 
L 3381 1997 
z
" transform="scale(0.015625)"/>
       </defs>
       <use xlink:href="#ArialMT-2212"/>
       <use xlink:href="#ArialMT-35" x="58.398438"/>
       <use xlink:href="#ArialMT-30" x="114.013672"/>
       <use xlink:href="#ArialMT-30" x="169.628906"/>
      </g>
     </g>
    </g>
    <g id="ytick_2">
     <g id="line2d_17">
      <path d="M 53.861563 263.707945 
L 701.861562 263.707945 
" clip-path="url(#p48e7cd02e0)" style="fill: none; stroke: #b0b0b0; stroke-width: 0.8; stroke-linecap: square"/>
     </g>
     <g id="line2d_18">
      <g>
       <use xlink:href="#m45993e6fc8" x="53.861563" y="263.707945" style="stroke: #000000; stroke-width: 0.8"/>
      </g>
     </g>
     <g id="text_24">
      <!-- −250 -->
      <g transform="translate(24.338125 267.286851) scale(0.1 -0.1)">
       <use xlink:href="#ArialMT-2212"/>
       <use xlink:href="#ArialMT-32" x="58.398438"/>
       <use xlink:href="#ArialMT-35" x="114.013672"/>
       <use xlink:href="#ArialMT-30" x="169.628906"/>
      </g>
     </g>
    </g>
    <g id="ytick_3">
     <g id="line2d_19">
      <path d="M 53.861563 228.038819 
L 701.861562 228.038819 
" clip-path="url(#p48e7cd02e0)" style="fill: none; stroke: #b0b0b0; stroke-width: 0.8; stroke-linecap: square"/>
     </g>
     <g id="line2d_20">
      <g>
       <use xlink:href="#m45993e6fc8" x="53.861563" y="228.038819" style="stroke: #000000; stroke-width: 0.8"/>
      </g>
     </g>
     <g id="text_25">
      <!-- 0 -->
      <g transform="translate(41.300625 231.617725) scale(0.1 -0.1)">
       <use xlink:href="#ArialMT-30"/>
      </g>
     </g>
    </g>
    <g id="ytick_4">
     <g id="line2d_21">
      <path d="M 53.861563 192.369692 
L 701.861562 192.369692 
" clip-path="url(#p48e7cd02e0)" style="fill: none; stroke: #b0b0b0; stroke-width: 0.8; stroke-linecap: square"/>
     </g>
     <g id="line2d_22">
      <g>
       <use xlink:href="#m45993e6fc8" x="53.861563" y="192.369692" style="stroke: #000000; stroke-width: 0.8"/>
      </g>
     </g>
     <g id="text_26">
      <!-- 250 -->
      <g transform="translate(30.17875 195.948598) scale(0.1 -0.1)">
       <use xlink:href="#ArialMT-32"/>
       <use xlink:href="#ArialMT-35" x="55.615234"/>
       <use xlink:href="#ArialMT-30" x="111.230469"/>
      </g>
     </g>
    </g>
    <g id="ytick_5">
     <g id="line2d_23">
      <path d="M 53.861563 156.700566 
L 701.861562 156.700566 
" clip-path="url(#p48e7cd02e0)" style="fill: none; stroke: #b0b0b0; stroke-width: 0.8; stroke-linecap: square"/>
     </g>
     <g id="line2d_24">
      <g>
       <use xlink:href="#m45993e6fc8" x="53.861563" y="156.700566" style="stroke: #000000; stroke-width: 0.8"/>
      </g>
     </g>
     <g id="text_27">
      <!-- 500 -->
      <g transform="translate(30.17875 160.279472) scale(0.1 -0.1)">
       <use xlink:href="#ArialMT-35"/>
       <use xlink:href="#ArialMT-30" x="55.615234"/>
       <use xlink:href="#ArialMT-30" x="111.230469"/>
      </g>
     </g>
    </g>
    <g id="ytick_6">
     <g id="line2d_25">
      <path d="M 53.861563 121.031439 
L 701.861562 121.031439 
" clip-path="url(#p48e7cd02e0)" style="fill: none; stroke: #b0b0b0; stroke-width: 0.8; stroke-linecap: square"/>
     </g>
     <g id="line2d_26">
      <g>
       <use xlink:href="#m45993e6fc8" x="53.861563" y="121.031439" style="stroke: #000000; stroke-width: 0.8"/>
      </g>
     </g>
     <g id="text_28">
      <!-- 750 -->
      <g transform="translate(30.17875 124.610346) scale(0.1 -0.1)">
       <use xlink:href="#ArialMT-37"/>
       <use xlink:href="#ArialMT-35" x="55.615234"/>
       <use xlink:href="#ArialMT-30" x="111.230469"/>
      </g>
     </g>
    </g>
    <g id="ytick_7">
     <g id="line2d_27">
      <path d="M 53.861563 85.362313 
L 701.861562 85.362313 
" clip-path="url(#p48e7cd02e0)" style="fill: none; stroke: #b0b0b0; stroke-width: 0.8; stroke-linecap: square"/>
     </g>
     <g id="line2d_28">
      <g>
       <use xlink:href="#m45993e6fc8" x="53.861563" y="85.362313" style="stroke: #000000; stroke-width: 0.8"/>
      </g>
     </g>
     <g id="text_29">
      <!-- 1000 -->
      <g transform="translate(24.617813 88.941219) scale(0.1 -0.1)">
       <use xlink:href="#ArialMT-31"/>
       <use xlink:href="#ArialMT-30" x="55.615234"/>
       <use xlink:href="#ArialMT-30" x="111.230469"/>
       <use xlink:href="#ArialMT-30" x="166.845703"/>
      </g>
     </g>
    </g>
    <g id="ytick_8">
     <g id="line2d_29">
      <path d="M 53.861563 49.693187 
L 701.861562 49.693187 
" clip-path="url(#p48e7cd02e0)" style="fill: none; stroke: #b0b0b0; stroke-width: 0.8; stroke-linecap: square"/>
     </g>
     <g id="line2d_30">
      <g>
       <use xlink:href="#m45993e6fc8" x="53.861563" y="49.693187" style="stroke: #000000; stroke-width: 0.8"/>
      </g>
     </g>
     <g id="text_30">
      <!-- 1250 -->
      <g transform="translate(24.617813 53.272093) scale(0.1 -0.1)">
       <use xlink:href="#ArialMT-31"/>
       <use xlink:href="#ArialMT-32" x="55.615234"/>
       <use xlink:href="#ArialMT-35" x="111.230469"/>
       <use xlink:href="#ArialMT-30" x="166.845703"/>
      </g>
     </g>
    </g>
    <g id="text_31">
     <!-- Angular Velocity (deg/s) -->
     <g transform="translate(17.391563 249.971875) rotate(-90) scale(0.14 -0.14)">
      <defs>
       <path id="ArialMT-41" d="M -9 0 
L 1750 4581 
L 2403 4581 
L 4278 0 
L 3588 0 
L 3053 1388 
L 1138 1388 
L 634 0 
L -9 0 
z
M 1313 1881 
L 2866 1881 
L 2388 3150 
Q 2169 3728 2063 4100 
Q 1975 3659 1816 3225 
L 1313 1881 
z
" transform="scale(0.015625)"/>
       <path id="ArialMT-75" d="M 2597 0 
L 2597 488 
Q 2209 -75 1544 -75 
Q 1250 -75 995 37 
Q 741 150 617 320 
Q 494 491 444 738 
Q 409 903 409 1263 
L 409 3319 
L 972 3319 
L 972 1478 
Q 972 1038 1006 884 
Q 1059 663 1231 536 
Q 1403 409 1656 409 
Q 1909 409 2131 539 
Q 2353 669 2445 892 
Q 2538 1116 2538 1541 
L 2538 3319 
L 3100 3319 
L 3100 0 
L 2597 0 
z
" transform="scale(0.015625)"/>
       <path id="ArialMT-6f" d="M 213 1659 
Q 213 2581 725 3025 
Q 1153 3394 1769 3394 
Q 2453 3394 2887 2945 
Q 3322 2497 3322 1706 
Q 3322 1066 3130 698 
Q 2938 331 2570 128 
Q 2203 -75 1769 -75 
Q 1072 -75 642 372 
Q 213 819 213 1659 
z
M 791 1659 
Q 791 1022 1069 705 
Q 1347 388 1769 388 
Q 2188 388 2466 706 
Q 2744 1025 2744 1678 
Q 2744 2294 2464 2611 
Q 2184 2928 1769 2928 
Q 1347 2928 1069 2612 
Q 791 2297 791 1659 
z
" transform="scale(0.015625)"/>
       <path id="ArialMT-74" d="M 1650 503 
L 1731 6 
Q 1494 -44 1306 -44 
Q 1000 -44 831 53 
Q 663 150 594 308 
Q 525 466 525 972 
L 525 2881 
L 113 2881 
L 113 3319 
L 525 3319 
L 525 4141 
L 1084 4478 
L 1084 3319 
L 1650 3319 
L 1650 2881 
L 1084 2881 
L 1084 941 
Q 1084 700 1114 631 
Q 1144 563 1211 522 
Q 1278 481 1403 481 
Q 1497 481 1650 503 
z
" transform="scale(0.015625)"/>
       <path id="ArialMT-79" d="M 397 -1278 
L 334 -750 
Q 519 -800 656 -800 
Q 844 -800 956 -737 
Q 1069 -675 1141 -563 
Q 1194 -478 1313 -144 
Q 1328 -97 1363 -6 
L 103 3319 
L 709 3319 
L 1400 1397 
Q 1534 1031 1641 628 
Q 1738 1016 1872 1384 
L 2581 3319 
L 3144 3319 
L 1881 -56 
Q 1678 -603 1566 -809 
Q 1416 -1088 1222 -1217 
Q 1028 -1347 759 -1347 
Q 597 -1347 397 -1278 
z
" transform="scale(0.015625)"/>
      </defs>
      <use xlink:href="#ArialMT-41"/>
      <use xlink:href="#ArialMT-6e" x="66.699219"/>
      <use xlink:href="#ArialMT-67" x="122.314453"/>
      <use xlink:href="#ArialMT-75" x="177.929688"/>
      <use xlink:href="#ArialMT-6c" x="233.544922"/>
      <use xlink:href="#ArialMT-61" x="255.761719"/>
      <use xlink:href="#ArialMT-72" x="311.376953"/>
      <use xlink:href="#ArialMT-20" x="344.677734"/>
      <use xlink:href="#ArialMT-56" x="372.460938"/>
      <use xlink:href="#ArialMT-65" x="433.660156"/>
      <use xlink:href="#ArialMT-6c" x="489.275391"/>
      <use xlink:href="#ArialMT-6f" x="511.492188"/>
      <use xlink:href="#ArialMT-63" x="567.107422"/>
      <use xlink:href="#ArialMT-69" x="617.107422"/>
      <use xlink:href="#ArialMT-74" x="639.324219"/>
      <use xlink:href="#ArialMT-79" x="667.107422"/>
      <use xlink:href="#ArialMT-20" x="717.107422"/>
      <use xlink:href="#ArialMT-28" x="744.890625"/>
      <use xlink:href="#ArialMT-64" x="778.191406"/>
      <use xlink:href="#ArialMT-65" x="833.806641"/>
      <use xlink:href="#ArialMT-67" x="889.421875"/>
      <use xlink:href="#ArialMT-2f" x="945.037109"/>
      <use xlink:href="#ArialMT-73" x="972.820312"/>
      <use xlink:href="#ArialMT-29" x="1022.820312"/>
     </g>
    </g>
   </g>
   <g id="line2d_31">
    <path d="M 83.316108 252.151148 
L 86.91911 258.928282 
L 90.522113 253.29256 
L 95.926617 249.46883 
L 101.33112 254.120084 
L 104.934123 254.491043 
L 110.338627 254.833466 
L 113.941629 261.924489 
L 117.544632 255.489778 
L 135.559644 256.431443 
L 144.56715 256.545584 
L 149.971654 251.751654 
L 155.376158 256.345837 
L 164.383664 255.746596 
L 173.391171 254.576649 
L 176.994173 253.72059 
L 182.398677 252.664783 
L 186.001679 251.35216 
L 191.406183 249.839789 
L 195.009186 248.0706 
L 200.413689 246.016058 
L 204.016692 243.733234 
L 209.421196 241.222128 
L 213.024198 238.454204 
L 218.428702 235.515068 
L 222.031704 232.433255 
L 227.436208 229.180231 
L 231.039211 225.813065 
L 236.443714 222.388829 
L 240.046717 218.964593 
L 245.451221 215.540357 
L 249.054223 212.116121 
L 254.458727 208.748955 
L 258.061729 205.43886 
L 263.466233 202.185836 
L 267.069236 199.046953 
L 272.473739 196.050746 
L 276.076742 193.225751 
L 281.481246 190.629039 
L 285.084248 188.317679 
L 290.488752 186.263138 
L 294.091754 184.493949 
L 303.099261 182.154054 
L 312.106767 181.155319 
L 326.518777 180.841431 
L 335.526283 179.956836 
L 339.129286 179.072242 
L 344.533789 177.902295 
L 348.136792 176.446994 
L 353.541296 174.706341 
L 357.144298 172.737405 
L 362.548802 170.511652 
L 366.151804 168.086151 
L 371.556308 165.546509 
L 375.159311 162.921261 
L 380.563814 160.267478 
L 384.166817 157.727837 
L 389.571321 155.359407 
L 393.174323 153.133653 
L 398.578827 151.136182 
L 402.181829 149.309923 
L 407.586333 147.569269 
L 411.189336 145.828616 
L 416.593839 144.145033 
L 420.196842 142.489986 
L 425.601346 140.834938 
L 429.204348 139.179891 
L 434.608852 137.524843 
L 438.211854 135.955402 
L 443.616358 134.500102 
L 447.219361 133.273084 
L 452.623864 132.44556 
L 456.226867 132.01753 
L 461.631371 131.931924 
L 465.234373 132.274348 
L 470.638877 132.93066 
L 474.241879 133.815254 
L 479.646383 134.928131 
L 483.249386 136.240755 
L 488.653889 137.838732 
L 492.256892 139.722062 
L 497.661396 141.91928 
L 501.264398 144.601598 
L 506.668902 147.797552 
L 510.271904 151.507141 
L 515.676408 155.730366 
L 519.279411 160.43869 
L 524.683914 165.575044 
L 528.286917 171.110893 
L 533.691421 176.932094 
L 537.294423 182.867437 
L 542.698927 188.688638 
L 546.301929 194.138881 
L 551.706433 198.961347 
L 555.309436 202.842148 
L 560.713939 205.553001 
L 564.316942 207.093908 
L 569.721446 207.579008 
L 573.324448 207.122443 
L 578.728952 206.066637 
L 582.331954 204.639872 
L 587.736458 203.127501 
L 591.339461 201.729271 
L 596.743965 200.502253 
L 600.346967 199.503518 
L 614.758977 197.563117 
L 623.766483 195.765393 
L 627.369486 194.310093 
L 632.77399 192.312622 
L 636.376992 189.801515 
L 641.781496 186.805309 
L 645.384498 183.523749 
L 650.789002 180.242189 
L 654.392005 177.245983 
L 663.399511 173.365182 
L 668.804015 173.051293 
L 672.407017 173.935888 
L 672.407017 173.935888 
" clip-path="url(#p48e7cd02e0)" style="fill: none; stroke: #1f77b4; stroke-width: 2; stroke-linecap: square"/>
   </g>
   <g id="line2d_32">
    <path d="M 83.316108 228.609525 
L 86.91911 228.509651 
L 90.522113 228.295636 
L 95.926617 228.224298 
L 110.338627 228.466848 
L 113.941629 228.680863 
L 122.949135 228.609525 
L 155.376158 228.124425 
L 164.383664 228.324172 
L 173.391171 229.037554 
L 182.398677 230.606996 
L 186.001679 231.776943 
L 191.406183 233.260779 
L 195.009186 235.087038 
L 200.413689 237.227186 
L 204.016692 239.709757 
L 209.421196 242.563287 
L 213.024198 245.70217 
L 218.428702 249.097871 
L 222.031704 252.835995 
L 227.436208 256.888008 
L 231.039211 261.253909 
L 236.443714 265.876628 
L 240.046717 270.727629 
L 245.451221 275.835448 
L 249.054223 281.028873 
L 254.458727 286.193762 
L 258.061729 291.273046 
L 263.466233 296.152582 
L 267.069236 300.604089 
L 272.473739 304.48489 
L 276.076742 307.737915 
L 285.084248 312.132351 
L 290.488752 313.188157 
L 294.091754 313.502045 
L 299.496258 313.045481 
L 303.099261 311.875533 
L 308.503764 309.992203 
L 312.106767 307.481097 
L 317.511271 304.570496 
L 321.114273 301.403078 
L 326.518777 298.064448 
L 330.121779 294.697282 
L 335.526283 291.330116 
L 339.129286 287.84881 
L 344.533789 284.224827 
L 348.136792 280.372561 
L 353.541296 276.292013 
L 357.144298 271.954647 
L 362.548802 267.417534 
L 366.151804 262.737745 
L 371.556308 257.801138 
L 375.159311 252.636248 
L 380.563814 247.186006 
L 384.166817 241.45041 
L 389.571321 235.515068 
L 393.174323 229.437048 
L 398.578827 223.244888 
L 402.181829 216.938586 
L 407.586333 210.432538 
L 411.189336 203.669671 
L 416.593839 196.621452 
L 420.196842 189.230809 
L 425.601346 181.526278 
L 429.204348 173.479323 
L 434.608852 165.11848 
L 438.211854 156.500819 
L 443.616358 147.683411 
L 447.219361 138.723326 
L 452.623864 129.763242 
L 456.226867 120.888763 
L 461.631371 112.242567 
L 465.234373 103.967329 
L 470.638877 96.063051 
L 474.241879 88.529731 
L 479.646383 81.3103 
L 483.249386 74.376222 
L 488.653889 67.641891 
L 492.256892 61.078772 
L 497.661396 54.801006 
L 501.264398 49.008339 
L 506.668902 44.071732 
L 510.271904 40.447749 
L 515.676408 38.592955 
L 519.279411 38.735631 
L 524.683914 40.761637 
L 528.286917 44.071732 
L 533.691421 47.66718 
L 537.294423 50.435105 
L 542.698927 53.374241 
L 546.301929 60.393925 
L 551.706433 71.722439 
L 555.309436 84.877213 
L 560.713939 98.888046 
L 564.316942 112.413779 
L 569.721446 124.227393 
L 573.324448 133.41576 
L 578.728952 139.693526 
L 582.331954 143.574327 
L 591.339461 147.169775 
L 596.743965 148.53947 
L 600.346967 150.280123 
L 605.751471 152.505877 
L 609.354473 155.102589 
L 614.758977 157.756372 
L 618.36198 160.096267 
L 623.766483 161.808385 
L 627.369486 162.607373 
L 632.77399 162.407626 
L 636.376992 161.266214 
L 641.781496 159.411419 
L 645.384498 157.214201 
L 650.789002 155.074054 
L 654.392005 153.27633 
L 659.796508 152.049312 
L 663.399511 151.649818 
L 668.804015 152.049312 
L 672.407017 153.133653 
L 672.407017 153.133653 
" clip-path="url(#p48e7cd02e0)" style="fill: none; stroke: #aec7e8; stroke-width: 2; stroke-linecap: square"/>
   </g>
   <g id="line2d_33">
    <path d="M 83.316108 230.155853 
L 126.552138 230.825005 
L 222.031704 231.966703 
L 249.054223 231.918906 
L 272.473739 231.699042 
L 312.106767 230.919743 
L 326.518777 230.549212 
L 348.136792 229.822132 
L 362.548802 229.330469 
L 375.159311 228.800854 
L 389.571321 228.232145 
L 402.181829 227.623773 
L 416.593839 226.980159 
L 429.204348 226.312576 
L 443.616358 225.633435 
L 447.219361 225.405866 
L 461.631371 224.724015 
L 465.234373 224.497873 
L 479.646383 223.826009 
L 483.249386 223.605289 
L 497.661396 222.960248 
L 506.668902 222.552194 
L 515.676408 222.168536 
L 524.683914 221.814699 
L 537.294423 221.348432 
L 582.331954 220.28592 
L 672.407017 218.801371 
L 672.407017 218.801371 
" clip-path="url(#p48e7cd02e0)" style="fill: none; stroke: #2ca02c; stroke-width: 2; stroke-linecap: square"/>
   </g>
   <g id="line2d_34">
    <path d="M 83.316108 237.484003 
L 86.91911 240.23766 
L 90.522113 238.168851 
L 95.926617 236.841959 
L 101.33112 238.996374 
L 104.934123 239.424404 
L 110.338627 239.938039 
L 113.941629 243.519219 
L 117.544632 240.96531 
L 122.949135 241.564551 
L 126.552138 242.163793 
L 131.956642 242.84864 
L 135.559644 243.590558 
L 140.964148 244.361011 
L 144.56715 245.188535 
L 149.971654 243.09119 
L 155.376158 247.014794 
L 158.97916 247.927924 
L 164.383664 248.898124 
L 167.986667 249.811253 
L 173.391171 250.695848 
L 176.994173 251.551907 
L 182.398677 252.350895 
L 186.001679 253.149884 
L 191.406183 253.891801 
L 195.009186 254.633719 
L 200.413689 255.347102 
L 204.016692 256.031949 
L 209.421196 256.745332 
L 213.024198 257.430179 
L 218.428702 258.086491 
L 222.031704 258.714267 
L 227.436208 259.370579 
L 231.039211 260.026891 
L 236.443714 260.654668 
L 240.046717 261.31098 
L 245.451221 261.995827 
L 249.054223 262.709209 
L 254.458727 263.451127 
L 258.061729 264.193045 
L 263.466233 264.877892 
L 267.069236 265.477134 
L 276.076742 266.418799 
L 285.084248 266.732687 
L 290.488752 266.704152 
L 299.496258 266.10491 
L 308.503764 264.820822 
L 312.106767 263.793551 
L 317.511271 262.423856 
L 321.114273 260.654668 
L 326.518777 258.371844 
L 330.121779 255.603919 
L 335.526283 252.32236 
L 339.129286 248.527165 
L 344.533789 244.275405 
L 348.136792 239.56708 
L 353.541296 234.544867 
L 357.144298 229.265837 
L 362.548802 223.787059 
L 366.151804 218.165604 
L 371.556308 212.430009 
L 375.159311 206.694413 
L 380.563814 200.930283 
L 384.166817 195.194687 
L 389.571321 189.487627 
L 393.174323 183.866173 
L 398.578827 178.358859 
L 402.181829 172.965687 
L 407.586333 167.686657 
L 411.189336 162.350555 
L 416.593839 157.014454 
L 420.196842 151.564212 
L 425.601346 145.942757 
L 429.204348 140.207162 
L 434.608852 134.38596 
L 438.211854 128.507688 
L 443.616358 122.515275 
L 447.219361 116.437256 
L 452.623864 110.359237 
L 456.226867 104.480965 
L 461.631371 99.002187 
L 465.234373 94.179721 
L 470.638877 90.213314 
L 474.241879 87.017361 
L 479.646383 84.477719 
L 483.249386 82.451712 
L 492.256892 79.740859 
L 497.661396 79.255759 
L 501.264398 79.655253 
L 506.668902 81.167624 
L 510.271904 83.707266 
L 515.676408 87.017361 
L 519.279411 90.72695 
L 524.683914 94.236792 
L 528.286917 97.061787 
L 533.691421 98.916581 
L 537.294423 99.658499 
L 542.698927 99.401681 
L 546.301929 108.561513 
L 551.706433 109.759996 
L 555.309436 102.911523 
L 560.713939 105.9648 
L 564.316942 109.24636 
L 569.721446 112.756202 
L 573.324448 116.579932 
L 578.728952 120.774622 
L 582.331954 125.311735 
L 587.736458 130.07713 
L 591.339461 134.928131 
L 596.743965 139.750597 
L 600.346967 144.430386 
L 605.751471 148.881893 
L 609.354473 153.162189 
L 614.758977 157.299807 
L 618.36198 161.408891 
L 623.766483 165.546509 
L 627.369486 169.684128 
L 632.77399 173.821747 
L 636.376992 177.873759 
L 641.781496 181.69749 
L 645.384498 185.264402 
L 650.789002 188.574497 
L 654.392005 191.599239 
L 659.796508 194.367163 
L 663.399511 196.963876 
L 668.804015 199.474982 
L 672.407017 201.986089 
L 672.407017 201.986089 
" clip-path="url(#p48e7cd02e0)" style="fill: none; stroke: #98df8a; stroke-width: 2; stroke-linecap: square"/>
   </g>
   <g id="line2d_35">
    <path d="M 533.691421 327.2475 
L 533.691421 24.8475 
" clip-path="url(#p48e7cd02e0)" style="fill: none; stroke-dasharray: 2,3.3; stroke-dashoffset: 0; stroke: #ff0000; stroke-width: 2"/>
   </g>
   <g id="line2d_36">
    <defs>
     <path id="m7b526c6203" d="M 0 3 
C 0.795609 3 1.55874 2.683901 2.12132 2.12132 
C 2.683901 1.55874 3 0.795609 3 0 
C 3 -0.795609 2.683901 -1.55874 2.12132 -2.12132 
C 1.55874 -2.683901 0.795609 -3 0 -3 
C -0.795609 -3 -1.55874 -2.683901 -2.12132 -2.12132 
C -2.683901 -1.55874 -3 -0.795609 -3 0 
C -3 0.795609 -2.683901 1.55874 -2.12132 2.12132 
C -1.55874 2.683901 -0.795609 3 0 3 
z
" style="stroke: #1f77b4"/>
    </defs>
    <g clip-path="url(#p48e7cd02e0)">
     <use xlink:href="#m7b526c6203" x="461.631371" y="131.931924" style="fill: #1f77b4; stroke: #1f77b4"/>
    </g>
   </g>
   <g id="line2d_37">
    <defs>
     <path id="m7f90b94654" d="M 0 3 
C 0.795609 3 1.55874 2.683901 2.12132 2.12132 
C 2.683901 1.55874 3 0.795609 3 0 
C 3 -0.795609 2.683901 -1.55874 2.12132 -2.12132 
C 1.55874 -2.683901 0.795609 -3 0 -3 
C -0.795609 -3 -1.55874 -2.683901 -2.12132 -2.12132 
C -2.683901 -1.55874 -3 -0.795609 -3 0 
C -3 0.795609 -2.683901 1.55874 -2.12132 2.12132 
C -1.55874 2.683901 -0.795609 3 0 3 
z
" style="stroke: #aec7e8"/>
    </defs>
    <g clip-path="url(#p48e7cd02e0)">
     <use xlink:href="#m7f90b94654" x="515.676408" y="38.592955" style="fill: #aec7e8; stroke: #aec7e8"/>
    </g>
   </g>
   <g id="line2d_38">
    <defs>
     <path id="m3e7a06f2cd" d="M 0 3 
C 0.795609 3 1.55874 2.683901 2.12132 2.12132 
C 2.683901 1.55874 3 0.795609 3 0 
C 3 -0.795609 2.683901 -1.55874 2.12132 -2.12132 
C 1.55874 -2.683901 0.795609 -3 0 -3 
C -0.795609 -3 -1.55874 -2.683901 -2.12132 -2.12132 
C -2.683901 -1.55874 -3 -0.795609 -3 0 
C -3 0.795609 -2.683901 1.55874 -2.12132 2.12132 
C -1.55874 2.683901 -0.795609 3 0 3 
z
" style="stroke: #2ca02c"/>
    </defs>
    <g clip-path="url(#p48e7cd02e0)">
     <use xlink:href="#m3e7a06f2cd" x="672.407017" y="218.801371" style="fill: #2ca02c; stroke: #2ca02c"/>
    </g>
   </g>
   <g id="line2d_39">
    <defs>
     <path id="m69f8ee7b3b" d="M 0 3 
C 0.795609 3 1.55874 2.683901 2.12132 2.12132 
C 2.683901 1.55874 3 0.795609 3 0 
C 3 -0.795609 2.683901 -1.55874 2.12132 -2.12132 
C 1.55874 -2.683901 0.795609 -3 0 -3 
C -0.795609 -3 -1.55874 -2.683901 -2.12132 -2.12132 
C -2.683901 -1.55874 -3 -0.795609 -3 0 
C -3 0.795609 -2.683901 1.55874 -2.12132 2.12132 
C -1.55874 2.683901 -0.795609 3 0 3 
z
" style="stroke: #98df8a"/>
    </defs>
    <g clip-path="url(#p48e7cd02e0)">
     <use xlink:href="#m69f8ee7b3b" x="497.661396" y="79.255759" style="fill: #98df8a; stroke: #98df8a"/>
    </g>
   </g>
   <g id="patch_17">
    <path d="M 53.861563 327.2475 
L 53.861563 24.8475 
" style="fill: none; stroke: #000000; stroke-width: 0.8; stroke-linejoin: miter; stroke-linecap: square"/>
   </g>
   <g id="patch_18">
    <path d="M 701.861562 327.2475 
L 701.861562 24.8475 
" style="fill: none; stroke: #000000; stroke-width: 0.8; stroke-linejoin: miter; stroke-linecap: square"/>
   </g>
   <g id="patch_19">
    <path d="M 53.861563 327.2475 
L 701.861562 327.2475 
" style="fill: none; stroke: #000000; stroke-width: 0.8; stroke-linejoin: miter; stroke-linecap: square"/>
   </g>
   <g id="patch_20">
    <path d="M 53.861563 24.8475 
L 701.861562 24.8475 
" style="fill: none; stroke: #000000; stroke-width: 0.8; stroke-linejoin: miter; stroke-linecap: square"/>
   </g>
   <g id="text_32">
    <!-- Thigh and Shank Angular Velocities During Football Kick -->
    <g transform="translate(178.197812 18.8475) scale(0.16 -0.16)">
     <defs>
      <path id="ArialMT-44" d="M 494 0 
L 494 4581 
L 2072 4581 
Q 2606 4581 2888 4516 
Q 3281 4425 3559 4188 
Q 3922 3881 4101 3404 
Q 4281 2928 4281 2316 
Q 4281 1794 4159 1391 
Q 4038 988 3847 723 
Q 3656 459 3429 307 
Q 3203 156 2883 78 
Q 2563 0 2147 0 
L 494 0 
z
M 1100 541 
L 2078 541 
Q 2531 541 2789 625 
Q 3047 709 3200 863 
Q 3416 1078 3536 1442 
Q 3656 1806 3656 2325 
Q 3656 3044 3420 3430 
Q 3184 3816 2847 3947 
Q 2603 4041 2063 4041 
L 1100 4041 
L 1100 541 
z
" transform="scale(0.015625)"/>
      <path id="ArialMT-46" d="M 525 0 
L 525 4581 
L 3616 4581 
L 3616 4041 
L 1131 4041 
L 1131 2622 
L 3281 2622 
L 3281 2081 
L 1131 2081 
L 1131 0 
L 525 0 
z
" transform="scale(0.015625)"/>
      <path id="ArialMT-62" d="M 941 0 
L 419 0 
L 419 4581 
L 981 4581 
L 981 2947 
Q 1338 3394 1891 3394 
Q 2197 3394 2470 3270 
Q 2744 3147 2920 2923 
Q 3097 2700 3197 2384 
Q 3297 2069 3297 1709 
Q 3297 856 2875 390 
Q 2453 -75 1863 -75 
Q 1275 -75 941 416 
L 941 0 
z
M 934 1684 
Q 934 1088 1097 822 
Q 1363 388 1816 388 
Q 2184 388 2453 708 
Q 2722 1028 2722 1663 
Q 2722 2313 2464 2622 
Q 2206 2931 1841 2931 
Q 1472 2931 1203 2611 
Q 934 2291 934 1684 
z
" transform="scale(0.015625)"/>
     </defs>
     <use xlink:href="#ArialMT-54"/>
     <use xlink:href="#ArialMT-68" x="61.083984"/>
     <use xlink:href="#ArialMT-69" x="116.699219"/>
     <use xlink:href="#ArialMT-67" x="138.916016"/>
     <use xlink:href="#ArialMT-68" x="194.53125"/>
     <use xlink:href="#ArialMT-20" x="250.146484"/>
     <use xlink:href="#ArialMT-61" x="277.929688"/>
     <use xlink:href="#ArialMT-6e" x="333.544922"/>
     <use xlink:href="#ArialMT-64" x="389.160156"/>
     <use xlink:href="#ArialMT-20" x="444.775391"/>
     <use xlink:href="#ArialMT-53" x="472.558594"/>
     <use xlink:href="#ArialMT-68" x="539.257812"/>
     <use xlink:href="#ArialMT-61" x="594.873047"/>
     <use xlink:href="#ArialMT-6e" x="650.488281"/>
     <use xlink:href="#ArialMT-6b" x="706.103516"/>
     <use xlink:href="#ArialMT-20" x="756.103516"/>
     <use xlink:href="#ArialMT-41" x="778.386719"/>
     <use xlink:href="#ArialMT-6e" x="845.085938"/>
     <use xlink:href="#ArialMT-67" x="900.701172"/>
     <use xlink:href="#ArialMT-75" x="956.316406"/>
     <use xlink:href="#ArialMT-6c" x="1011.931641"/>
     <use xlink:href="#ArialMT-61" x="1034.148438"/>
     <use xlink:href="#ArialMT-72" x="1089.763672"/>
     <use xlink:href="#ArialMT-20" x="1123.064453"/>
     <use xlink:href="#ArialMT-56" x="1150.847656"/>
     <use xlink:href="#ArialMT-65" x="1212.046875"/>
     <use xlink:href="#ArialMT-6c" x="1267.662109"/>
     <use xlink:href="#ArialMT-6f" x="1289.878906"/>
     <use xlink:href="#ArialMT-63" x="1345.494141"/>
     <use xlink:href="#ArialMT-69" x="1395.494141"/>
     <use xlink:href="#ArialMT-74" x="1417.710938"/>
     <use xlink:href="#ArialMT-69" x="1445.494141"/>
     <use xlink:href="#ArialMT-65" x="1467.710938"/>
     <use xlink:href="#ArialMT-73" x="1523.326172"/>
     <use xlink:href="#ArialMT-20" x="1573.326172"/>
     <use xlink:href="#ArialMT-44" x="1601.109375"/>
     <use xlink:href="#ArialMT-75" x="1673.326172"/>
     <use xlink:href="#ArialMT-72" x="1728.941406"/>
     <use xlink:href="#ArialMT-69" x="1762.242188"/>
     <use xlink:href="#ArialMT-6e" x="1784.458984"/>
     <use xlink:href="#ArialMT-67" x="1840.074219"/>
     <use xlink:href="#ArialMT-20" x="1895.689453"/>
     <use xlink:href="#ArialMT-46" x="1923.472656"/>
     <use xlink:href="#ArialMT-6f" x="1984.556641"/>
     <use xlink:href="#ArialMT-6f" x="2040.171875"/>
     <use xlink:href="#ArialMT-74" x="2095.787109"/>
     <use xlink:href="#ArialMT-62" x="2123.570312"/>
     <use xlink:href="#ArialMT-61" x="2179.185547"/>
     <use xlink:href="#ArialMT-6c" x="2234.800781"/>
     <use xlink:href="#ArialMT-6c" x="2257.017578"/>
     <use xlink:href="#ArialMT-20" x="2279.234375"/>
     <use xlink:href="#ArialMT-4b" x="2307.017578"/>
     <use xlink:href="#ArialMT-69" x="2373.716797"/>
     <use xlink:href="#ArialMT-63" x="2395.933594"/>
     <use xlink:href="#ArialMT-6b" x="2445.933594"/>
    </g>
   </g>
   <g id="legend_1">
    <g id="patch_21">
     <path d="M 62.261563 119.671875 
L 188.694688 119.671875 
Q 191.094688 119.671875 191.094688 117.271875 
L 191.094688 33.2475 
Q 191.094688 30.8475 188.694688 30.8475 
L 62.261563 30.8475 
Q 59.861563 30.8475 59.861563 33.2475 
L 59.861563 117.271875 
Q 59.861563 119.671875 62.261563 119.671875 
z
" style="fill: #ffffff; opacity: 0.7; stroke: #cccccc; stroke-linejoin: miter"/>
    </g>
    <g id="line2d_40">
     <path d="M 64.661563 40.0725 
L 76.661563 40.0725 
L 88.661563 40.0725 
" style="fill: none; stroke: #1f77b4; stroke-width: 2; stroke-linecap: square"/>
    </g>
    <g id="text_33">
     <!-- Kicker 1 - Thigh -->
     <g transform="translate(98.261563 44.2725) scale(0.12 -0.12)">
      <defs>
       <path id="ArialMT-2d" d="M 203 1375 
L 203 1941 
L 1931 1941 
L 1931 1375 
L 203 1375 
z
" transform="scale(0.015625)"/>
      </defs>
      <use xlink:href="#ArialMT-4b"/>
      <use xlink:href="#ArialMT-69" x="66.699219"/>
      <use xlink:href="#ArialMT-63" x="88.916016"/>
      <use xlink:href="#ArialMT-6b" x="138.916016"/>
      <use xlink:href="#ArialMT-65" x="188.916016"/>
      <use xlink:href="#ArialMT-72" x="244.53125"/>
      <use xlink:href="#ArialMT-20" x="277.832031"/>
      <use xlink:href="#ArialMT-31" x="305.615234"/>
      <use xlink:href="#ArialMT-20" x="361.230469"/>
      <use xlink:href="#ArialMT-2d" x="389.013672"/>
      <use xlink:href="#ArialMT-20" x="422.314453"/>
      <use xlink:href="#ArialMT-54" x="448.347656"/>
      <use xlink:href="#ArialMT-68" x="509.431641"/>
      <use xlink:href="#ArialMT-69" x="565.046875"/>
      <use xlink:href="#ArialMT-67" x="587.263672"/>
      <use xlink:href="#ArialMT-68" x="642.878906"/>
     </g>
    </g>
    <g id="line2d_41">
     <path d="M 64.661563 57.1875 
L 76.661563 57.1875 
L 88.661563 57.1875 
" style="fill: none; stroke: #aec7e8; stroke-width: 2; stroke-linecap: square"/>
    </g>
    <g id="text_34">
     <!-- Kicker 1 - Shank -->
     <g transform="translate(98.261563 61.3875) scale(0.12 -0.12)">
      <use xlink:href="#ArialMT-4b"/>
      <use xlink:href="#ArialMT-69" x="66.699219"/>
      <use xlink:href="#ArialMT-63" x="88.916016"/>
      <use xlink:href="#ArialMT-6b" x="138.916016"/>
      <use xlink:href="#ArialMT-65" x="188.916016"/>
      <use xlink:href="#ArialMT-72" x="244.53125"/>
      <use xlink:href="#ArialMT-20" x="277.832031"/>
      <use xlink:href="#ArialMT-31" x="305.615234"/>
      <use xlink:href="#ArialMT-20" x="361.230469"/>
      <use xlink:href="#ArialMT-2d" x="389.013672"/>
      <use xlink:href="#ArialMT-20" x="422.314453"/>
      <use xlink:href="#ArialMT-53" x="450.097656"/>
      <use xlink:href="#ArialMT-68" x="516.796875"/>
      <use xlink:href="#ArialMT-61" x="572.412109"/>
      <use xlink:href="#ArialMT-6e" x="628.027344"/>
      <use xlink:href="#ArialMT-6b" x="683.642578"/>
     </g>
    </g>
    <g id="line2d_42">
     <path d="M 64.661563 74.1975 
L 76.661563 74.1975 
L 88.661563 74.1975 
" style="fill: none; stroke: #2ca02c; stroke-width: 2; stroke-linecap: square"/>
    </g>
    <g id="text_35">
     <!-- Kicker 2 - Thigh -->
     <g transform="translate(98.261563 78.3975) scale(0.12 -0.12)">
      <use xlink:href="#ArialMT-4b"/>
      <use xlink:href="#ArialMT-69" x="66.699219"/>
      <use xlink:href="#ArialMT-63" x="88.916016"/>
      <use xlink:href="#ArialMT-6b" x="138.916016"/>
      <use xlink:href="#ArialMT-65" x="188.916016"/>
      <use xlink:href="#ArialMT-72" x="244.53125"/>
      <use xlink:href="#ArialMT-20" x="277.832031"/>
      <use xlink:href="#ArialMT-32" x="305.615234"/>
      <use xlink:href="#ArialMT-20" x="361.230469"/>
      <use xlink:href="#ArialMT-2d" x="389.013672"/>
      <use xlink:href="#ArialMT-20" x="422.314453"/>
      <use xlink:href="#ArialMT-54" x="448.347656"/>
      <use xlink:href="#ArialMT-68" x="509.431641"/>
      <use xlink:href="#ArialMT-69" x="565.046875"/>
      <use xlink:href="#ArialMT-67" x="587.263672"/>
      <use xlink:href="#ArialMT-68" x="642.878906"/>
     </g>
    </g>
    <g id="line2d_43">
     <path d="M 64.661563 91.3125 
L 76.661563 91.3125 
L 88.661563 91.3125 
" style="fill: none; stroke: #98df8a; stroke-width: 2; stroke-linecap: square"/>
    </g>
    <g id="text_36">
     <!-- Kicker 2 - Shank -->
     <g transform="translate(98.261563 95.5125) scale(0.12 -0.12)">
      <use xlink:href="#ArialMT-4b"/>
      <use xlink:href="#ArialMT-69" x="66.699219"/>
      <use xlink:href="#ArialMT-63" x="88.916016"/>
      <use xlink:href="#ArialMT-6b" x="138.916016"/>
      <use xlink:href="#ArialMT-65" x="188.916016"/>
      <use xlink:href="#ArialMT-72" x="244.53125"/>
      <use xlink:href="#ArialMT-20" x="277.832031"/>
      <use xlink:href="#ArialMT-32" x="305.615234"/>
      <use xlink:href="#ArialMT-20" x="361.230469"/>
      <use xlink:href="#ArialMT-2d" x="389.013672"/>
      <use xlink:href="#ArialMT-20" x="422.314453"/>
      <use xlink:href="#ArialMT-53" x="450.097656"/>
      <use xlink:href="#ArialMT-68" x="516.796875"/>
      <use xlink:href="#ArialMT-61" x="572.412109"/>
      <use xlink:href="#ArialMT-6e" x="628.027344"/>
      <use xlink:href="#ArialMT-6b" x="683.642578"/>
     </g>
    </g>
    <g id="line2d_44">
     <path d="M 64.661563 108.286875 
L 76.661563 108.286875 
L 88.661563 108.286875 
" style="fill: none; stroke-dasharray: 2,3.3; stroke-dashoffset: 0; stroke: #ff0000; stroke-width: 2"/>
    </g>
    <g id="text_37">
     <!-- Ball Contact -->
     <g transform="translate(98.261563 112.486875) scale(0.12 -0.12)">
      <defs>
       <path id="ArialMT-42" d="M 469 0 
L 469 4581 
L 2188 4581 
Q 2713 4581 3030 4442 
Q 3347 4303 3526 4014 
Q 3706 3725 3706 3409 
Q 3706 3116 3547 2856 
Q 3388 2597 3066 2438 
Q 3481 2316 3704 2022 
Q 3928 1728 3928 1328 
Q 3928 1006 3792 729 
Q 3656 453 3456 303 
Q 3256 153 2954 76 
Q 2653 0 2216 0 
L 469 0 
z
M 1075 2656 
L 2066 2656 
Q 2469 2656 2644 2709 
Q 2875 2778 2992 2937 
Q 3109 3097 3109 3338 
Q 3109 3566 3000 3739 
Q 2891 3913 2687 3977 
Q 2484 4041 1991 4041 
L 1075 4041 
L 1075 2656 
z
M 1075 541 
L 2216 541 
Q 2509 541 2628 563 
Q 2838 600 2978 687 
Q 3119 775 3209 942 
Q 3300 1109 3300 1328 
Q 3300 1584 3169 1773 
Q 3038 1963 2805 2039 
Q 2572 2116 2134 2116 
L 1075 2116 
L 1075 541 
z
" transform="scale(0.015625)"/>
       <path id="ArialMT-43" d="M 3763 1606 
L 4369 1453 
Q 4178 706 3683 314 
Q 3188 -78 2472 -78 
Q 1731 -78 1267 223 
Q 803 525 561 1097 
Q 319 1669 319 2325 
Q 319 3041 592 3573 
Q 866 4106 1370 4382 
Q 1875 4659 2481 4659 
Q 3169 4659 3637 4309 
Q 4106 3959 4291 3325 
L 3694 3184 
Q 3534 3684 3231 3912 
Q 2928 4141 2469 4141 
Q 1941 4141 1586 3887 
Q 1231 3634 1087 3207 
Q 944 2781 944 2328 
Q 944 1744 1114 1308 
Q 1284 872 1643 656 
Q 2003 441 2422 441 
Q 2931 441 3284 734 
Q 3638 1028 3763 1606 
z
" transform="scale(0.015625)"/>
      </defs>
      <use xlink:href="#ArialMT-42"/>
      <use xlink:href="#ArialMT-61" x="66.699219"/>
      <use xlink:href="#ArialMT-6c" x="122.314453"/>
      <use xlink:href="#ArialMT-6c" x="144.53125"/>
      <use xlink:href="#ArialMT-20" x="166.748047"/>
      <use xlink:href="#ArialMT-43" x="194.53125"/>
      <use xlink:href="#ArialMT-6f" x="266.748047"/>
      <use xlink:href="#ArialMT-6e" x="322.363281"/>
      <use xlink:href="#ArialMT-74" x="377.978516"/>
      <use xlink:href="#ArialMT-61" x="405.761719"/>
      <use xlink:href="#ArialMT-63" x="461.376953"/>
      <use xlink:href="#ArialMT-74" x="511.376953"/>
     </g>
    </g>
   </g>
  </g>
 </g>
 <defs>
  <clipPath id="p48e7cd02e0">
   <rect x="53.861563" y="24.8475" width="648" height="302.4"/>
  </clipPath>
 </defs>
</svg>
